# xmcd
#
# Track frame offsets:
# 150
# 12297
# 29065
# 50102
# 63880
# 78347
# 94152
# 111305
# 130087
# 144052
# 155390
# 177550
# 198735
# 220302
# 232787
# 247325
# 261022
# 274325
# 288100
# 306485
#
# Disc length: 4235 seconds
#
#
# Revision: 0
# Processed by: cddbd v1.5.1PL2 Copyright (c) Steve Scherf et al.
# Submitted via: FreeRIP 2.944 
#
DISCID=2b108914
DTITLE=Various Artist - Everlasting Sentimental Hits 5
DYEAR=1900
DGENRE=Oldies
TTITLE0=hello darling
TTITLE1=yesterday once more
TTITLE2=how can i tell her
TTITLE3=am i that easy to forget
TTITLE4=release me
TTITLE5=it's now or never
TTITLE6=i'd love you to want me
TTITLE7=jealous guy
TTITLE8=walk away
TTITLE9=goodbye
TTITLE10=you make me feel brand new
TTITLE11=changes
TTITLE12=sailing
TTITLE13=judy judy judy
TTITLE14=dear heart
TTITLE15=try to remember
TTITLE16=without you
TTITLE17=by the time i get to phoenix
TTITLE18=superstar
TTITLE19=edelweiss
EXTD=
EXTT0=
EXTT1=
EXTT2=
EXTT3=
EXTT4=
EXTT5=
EXTT6=
EXTT7=
EXTT8=
EXTT9=
EXTT10=
EXTT11=
EXTT12=
EXTT13=
EXTT14=
EXTT15=
EXTT16=
EXTT17=
EXTT18=
EXTT19=
PLAYORDER=
